<?xml version="1.0" encoding="iso-8859-1"?>
<!-- Generator: Adobe Illustrator 19.0.0, SVG Export Plug-In . SVG Version: 6.00 Build 0)  -->
<svg version="1.1" id="Layer_1" xmlns="http://www.w3.org/2000/svg" xmlns:xlink="http://www.w3.org/1999/xlink" x="0px" y="0px"
	 viewBox="0 0 512.001 512.001" style="enable-background:new 0 0 512.001 512.001;" xml:space="preserve">
<g>
	<rect x="59.675" y="425.503" style="fill:#A4A9AD;" width="266.183" height="38.955"/>
	<path style="fill:#A4A9AD;" d="M413.669,371.139c-49.605,0-89.962-40.358-89.962-89.961c0-49.606,40.358-89.962,89.962-89.962
		c49.607,0,89.962,40.357,89.962,89.962C503.631,330.781,463.276,371.139,413.669,371.139z M413.669,223.163
		c-31.989,0-58.012,26.025-58.012,58.014c0,31.988,26.024,58.012,58.012,58.012s58.015-26.025,58.015-58.012
		C471.684,249.189,445.658,223.163,413.669,223.163z"/>
</g>
<path style="fill:#5C6670;" d="M389.478,228.469v-33.923c-37.886,10.594-65.771,45.406-65.771,86.631
	c0,41.224,27.885,76.035,65.771,86.63v-33.924c-19.939-9.187-33.822-29.35-33.822-52.707S369.539,237.657,389.478,228.469z"/>
<path style="fill:#E4E4E4;" d="M351.94,163.47H33.592c-13.874,0-25.224,11.35-25.224,25.224v181.609
	c0,35.596,28.859,64.454,64.451,64.454h239.892c35.592,0,64.451-28.857,64.451-64.454l0,0V188.694
	C377.162,174.82,365.812,163.47,351.94,163.47z"/>
<path style="fill:#1E252B;" d="M194.72,98.965c-7.637,5.616-12.018,13.666-12.018,22.084c0,8.419,4.381,16.468,12.018,22.085
	c1.493,1.098,3.23,1.627,4.952,1.627c2.571,0,5.108-1.182,6.749-3.411c2.738-3.724,1.939-8.961-1.784-11.7
	c-3.35-2.464-5.195-5.518-5.195-8.601s1.846-6.136,5.195-8.6c7.636-5.615,12.016-13.663,12.018-22.082
	c0-8.419-4.38-16.469-12.018-22.086c-3.351-2.464-5.195-5.518-5.195-8.6c0.001-3.082,1.846-6.136,5.195-8.599
	c3.724-2.738,4.522-7.976,1.784-11.7c-2.737-3.724-7.974-4.522-11.7-1.785c-7.637,5.615-12.015,13.665-12.018,22.082
	c0,8.419,4.381,16.469,12.018,22.085c3.35,2.464,5.195,5.519,5.195,8.601C199.915,93.448,198.07,96.502,194.72,98.965z
	 M413.669,182.847c-9.66,0-19.093,1.381-28.183,4.111c-0.907-17.72-15.605-31.856-33.545-31.856H33.592
	C15.069,155.101,0,170.171,0,188.694v181.609c0,32.666,21.62,60.376,51.303,69.576v27.783c0,4.622,3.746,8.369,8.369,8.369h266.182
	c4.623,0,8.369-3.747,8.369-8.369v-27.781c28.141-8.719,49.018-34.082,51.115-64.529c9.136,2.761,18.622,4.155,28.332,4.155
	c54.22,0,98.331-44.11,98.331-98.33C512,226.957,467.888,182.847,413.669,182.847z M317.484,459.292H68.04v-16.341
	c1.582,0.104,3.172,0.174,4.779,0.174h239.892c1.606,0,3.192-0.07,4.772-0.174L317.484,459.292L317.484,459.292z M368.793,370.303
	c0,30.925-25.159,56.085-56.082,56.085H72.82c-30.923,0-56.082-25.16-56.082-56.085V188.694c0-9.294,7.561-16.855,16.855-16.855
	H351.94c9.293,0,16.854,7.561,16.854,16.855L368.793,370.303L368.793,370.303z M385.531,240.312
	c8.243-5.681,18.093-8.779,28.138-8.779c27.375,0,49.646,22.27,49.646,49.645c0,27.374-22.271,49.644-49.646,49.644
	c-10.055,0-19.895-3.09-28.138-8.772V240.312z M413.669,362.77c-9.716,0-19.151-1.704-28.138-5.025v-16.478
	c8.757,4.103,18.37,6.291,28.138,6.291c36.604,0,66.383-29.778,66.383-66.381c0-36.604-29.781-66.382-66.383-66.382
	c-9.758,0-19.377,2.193-28.138,6.297v-16.481c8.985-3.32,18.418-5.027,28.138-5.027c44.991,0,81.593,36.603,81.593,81.593
	C495.262,326.167,458.66,362.77,413.669,362.77z M276.001,98.965c-7.639,5.616-12.019,13.666-12.019,22.085
	s4.381,16.469,12.019,22.085c1.493,1.098,3.229,1.627,4.95,1.627c2.572,0,5.108-1.182,6.749-3.412
	c2.738-3.724,1.939-8.962-1.784-11.7c-3.352-2.464-5.196-5.518-5.196-8.6c0-3.082,1.844-6.136,5.198-8.601
	c7.633-5.615,12.012-13.663,12.013-22.081c0-8.418-4.379-16.468-12.014-22.086c-3.351-2.464-5.195-5.518-5.195-8.6
	c0-3.082,1.844-6.135,5.195-8.598c3.724-2.738,4.524-7.976,1.786-11.7c-2.736-3.724-7.977-4.522-11.7-1.786
	c-7.638,5.615-12.019,13.665-12.019,22.084s4.381,16.469,12.018,22.084c3.349,2.464,5.193,5.519,5.193,8.602
	C281.191,93.449,279.348,96.502,276.001,98.965z M113.571,98.965c-7.637,5.616-12.015,13.666-12.015,22.084
	c0,8.419,4.38,16.468,12.015,22.085c1.493,1.098,3.23,1.627,4.952,1.627c2.571,0,5.108-1.182,6.749-3.411
	c2.738-3.724,1.939-8.961-1.784-11.7c-3.35-2.464-5.194-5.518-5.194-8.601s1.844-6.136,5.195-8.601
	c7.633-5.615,12.012-13.663,12.012-22.081c0.001-8.418-4.377-16.468-12.013-22.086c-3.35-2.464-5.195-5.518-5.194-8.6
	c0-3.082,1.844-6.136,5.193-8.599c3.725-2.738,4.524-7.976,1.785-11.7c-2.738-3.724-7.976-4.522-11.698-1.785
	c-7.638,5.615-12.018,13.665-12.018,22.082c-0.001,8.419,4.38,16.469,12.014,22.084c3.349,2.464,5.193,5.519,5.192,8.602
	C118.763,93.449,116.919,96.502,113.571,98.965z"/>
<g>
</g>
<g>
</g>
<g>
</g>
<g>
</g>
<g>
</g>
<g>
</g>
<g>
</g>
<g>
</g>
<g>
</g>
<g>
</g>
<g>
</g>
<g>
</g>
<g>
</g>
<g>
</g>
<g>
</g>
</svg>
