<?xml version="1.0" encoding="iso-8859-1"?>
<!-- Generator: Adobe Illustrator 19.0.0, SVG Export Plug-In . SVG Version: 6.00 Build 0)  -->
<svg version="1.1" id="Capa_1" xmlns="http://www.w3.org/2000/svg" xmlns:xlink="http://www.w3.org/1999/xlink" x="0px" y="0px"
	 viewBox="0 0 511 511" style="enable-background:new 0 0 511 511;" xml:space="preserve">
<g>
	<path d="M431.5,16H407v-0.5C407,6.953,400.047,0,391.5,0h-64C318.953,0,312,6.953,312,15.5V16H79.5C66.542,16,56,26.542,56,39.5
		v448c0,12.958,10.542,23.5,23.5,23.5h352c12.958,0,23.5-10.542,23.5-23.5v-448C455,26.542,444.458,16,431.5,16z M327.5,15h64
		c0.276,0,0.5,0.225,0.5,0.5v7.952c0,0.016-0.002,0.032-0.002,0.048S392,23.532,392,23.548v114.706l-28.641-17.185
		c-1.188-0.712-2.523-1.069-3.859-1.069s-2.671,0.356-3.859,1.069L327,138.254V23.539c0-0.013,0.002-0.025,0.002-0.039
		S327,23.475,327,23.461V15.5C327,15.225,327.224,15,327.5,15z M440,487.5c0,4.687-3.813,8.5-8.5,8.5h-352
		c-4.687,0-8.5-3.813-8.5-8.5v-448c0-4.687,3.813-8.5,8.5-8.5H312v120.5c0,2.702,1.454,5.195,3.805,6.526
		c2.352,1.331,5.237,1.295,7.554-0.095l36.141-21.685l36.141,21.685c1.187,0.712,2.522,1.069,3.859,1.069
		c1.273,0,2.548-0.324,3.695-0.974c2.351-1.331,3.805-3.824,3.805-6.526V31h24.5c4.687,0,8.5,3.813,8.5,8.5V487.5z"/>
	<path d="M95.5,48c-4.142,0-7.5,3.358-7.5,7.5v416c0,4.142,3.358,7.5,7.5,7.5s7.5-3.358,7.5-7.5v-416C103,51.358,99.642,48,95.5,48z
		"/>
	<path d="M343.5,336h-10.503l-43.263-137h5.766c4.142,0,7.5-3.358,7.5-7.5s-3.358-7.5-7.5-7.5h-15.99c-0.025,0-0.05,0-0.074,0
		h-31.865c-0.031,0-0.061,0-0.092,0H231.5c-4.142,0-7.5,3.358-7.5,7.5s3.358,7.5,7.5,7.5h5.767l-43.263,137H183.5
		c-4.142,0-7.5,3.358-7.5,7.5s3.358,7.5,7.5,7.5h15.976c0.009,0,0.017,0.002,0.026,0.002c0.008,0,0.016-0.002,0.024-0.002H215.5
		c4.142,0,7.5-3.358,7.5-7.5s-3.358-7.5-7.5-7.5h-5.767l5.375-17.02c0.131,0.006,0.26,0.02,0.392,0.02h96
		c0.132,0,0.261-0.013,0.392-0.02l5.375,17.02H311.5c-4.142,0-7.5,3.358-7.5,7.5s3.358,7.5,7.5,7.5h15.974
		c0.008,0,0.016,0.002,0.024,0.002c0.009,0,0.017-0.002,0.026-0.002H343.5c4.142,0,7.5-3.358,7.5-7.5S347.642,336,343.5,336z
		 M219.839,304l33.158-105h21.007l33.158,105H219.839z"/>
</g>
<g>
</g>
<g>
</g>
<g>
</g>
<g>
</g>
<g>
</g>
<g>
</g>
<g>
</g>
<g>
</g>
<g>
</g>
<g>
</g>
<g>
</g>
<g>
</g>
<g>
</g>
<g>
</g>
<g>
</g>
</svg>
