<?xml version="1.0" encoding="iso-8859-1"?>
<!-- Generator: Adobe Illustrator 19.0.0, SVG Export Plug-In . SVG Version: 6.00 Build 0)  -->
<svg version="1.1" id="Layer_1" xmlns="http://www.w3.org/2000/svg" xmlns:xlink="http://www.w3.org/1999/xlink" x="0px" y="0px"
	 viewBox="0 0 512 512"  xml:space="preserve">
<g>
	<g>
		<rect x="208.98" y="154.216" width="15.673" height="15.673"/>
	</g>
</g>
<g>
	<g>
		<rect x="288.893" y="103.016" width="15.674" height="15.673"/>
	</g>
</g>
<g>
	<g>
		<rect x="374.356" y="163.255" width="15.673" height="15.673"/>
	</g>
</g>
<g>
	<g>
		<rect x="363.677" y="97.97" width="15.674" height="15.673"/>
	</g>
</g>
<g>
	<g>
		<rect x="231.967" y="55.999" width="15.673" height="15.674"/>
	</g>
</g>
<g>
	<g>
		<rect x="303.971" y="192.167" width="15.673" height="15.673"/>
	</g>
</g>
<g>
	<g>
		<path d="M178.808,0v248.163H69.355V512h263.837V263.837h109.453V0H178.808z M317.518,496.327H85.029v-232.49h232.49V496.327z
			 M426.971,248.163h-232.49V15.673h232.49V248.163z"/>
	</g>
</g>
<g>
	<g>
		<rect x="132.932" y="402.38" width="15.673" height="15.673"/>
	</g>
</g>
<g>
	<g>
		<rect x="190.401" y="351.18" width="15.673" height="15.673"/>
	</g>
</g>
<g>
	<g>
		<rect x="275.853" y="411.418" width="15.673" height="15.673"/>
	</g>
</g>
<g>
	<g>
		<rect x="265.174" y="346.133" width="15.673" height="15.673"/>
	</g>
</g>
<g>
	<g>
		<rect x="155.92" y="304.159" width="15.673" height="15.673"/>
	</g>
</g>
<g>
	<g>
		<rect x="205.479" y="440.33" width="15.673" height="15.673"/>
	</g>
</g>
<g>
</g>
<g>
</g>
<g>
</g>
<g>
</g>
<g>
</g>
<g>
</g>
<g>
</g>
<g>
</g>
<g>
</g>
<g>
</g>
<g>
</g>
<g>
</g>
<g>
</g>
<g>
</g>
<g>
</g>
</svg>
