<?xml version="1.0" encoding="iso-8859-1"?>
<!-- Generator: Adobe Illustrator 19.0.0, SVG Export Plug-In . SVG Version: 6.00 Build 0)  -->
<svg version="1.1" id="Layer_1" xmlns="http://www.w3.org/2000/svg" xmlns:xlink="http://www.w3.org/1999/xlink" x="0px" y="0px"
	 viewBox="0 0 512 512" style="enable-background:new 0 0 512 512;" xml:space="preserve">
<g>
	<g>
		<path d="M491.307,348.994c-11.545-12.617-26.708-21.062-43.296-24.249c0.079-6.091-2.139-12.044-6.256-16.595
			c-4.59-5.074-11.146-7.985-17.988-7.985h-51.036h-27.577H264.74c-6.842,0-13.399,2.911-17.989,7.986
			c-4.59,5.074-6.829,11.889-6.144,18.698l17.864,177.544c0.39,3.878,3.653,6.83,7.552,6.83h156.461c3.898,0,7.162-2.952,7.552-6.83
			l2.331-23.161c0.223,0.002,0.445,0.017,0.668,0.017c43.541,0,78.964-35.424,78.964-78.964
			C512,382.504,504.651,363.579,491.307,348.994z M352.745,315.345h12.396v75.545h-12.396V315.345z M372.732,406.072h7.414v22.33
			h-43.765v-22.33h8.774H372.732z M432.795,325.328l-17.175,170.715H272.888l-17.177-170.715c-0.26-2.585,0.557-5.069,2.298-6.995
			c1.742-1.926,4.133-2.987,6.73-2.987h72.825v75.545h-8.774c-4.193,0-7.59,3.397-7.59,7.59v37.511c0,4.193,3.397,7.59,7.59,7.59
			h58.945c4.193,0,7.59-3.397,7.59-7.59V398.48c0-4.193-3.397-7.59-7.59-7.59h-7.414v-75.545h43.445c2.597,0,4.988,1.061,6.73,2.987
			C432.239,320.259,433.055,322.743,432.795,325.328z M444.049,365.115c16.231,4.733,27.727,19.593,27.727,37.17
			c0,20.218-15.57,36.86-35.349,38.586L444.049,365.115z M433.895,466.047l0.995-9.887c28.875-0.983,52.068-24.764,52.068-53.876
			c0-13.532-5.035-26.474-14.175-36.44c-7.335-7.997-16.801-13.529-27.194-16.008l0.995-9.889
			c29.109,6.214,50.237,31.8,50.237,62.337C496.819,437.167,468.669,465.583,433.895,466.047z"/>
	</g>
</g>
<g>
	<g>
		<path d="M275.204,116.994l-65.296-23.363c-11.561-19.306-29.212-34.468-50.261-42.915V8.367c0-4.193-3.398-7.59-7.59-7.59H94.514
			c-4.192,0-7.59,3.397-7.59,7.59v40.66c-38.823,13.505-67.214,49.46-69.322,92.777L0.009,503.265
			c-0.101,2.075,0.653,4.1,2.086,5.604c1.433,1.504,3.419,2.355,5.496,2.355h226.877c2.077,0,4.063-0.851,5.496-2.355
			c1.433-1.504,2.186-3.529,2.086-5.604l-16.783-344.791h47.38c4.193,0,7.59-3.397,7.59-7.59v-26.743
			C280.237,120.935,278.224,118.075,275.204,116.994z M102.104,15.957h42.361v29.994c-7.536-1.74-15.38-2.664-23.437-2.664
			c-6.462,0-12.785,0.598-18.925,1.729V15.957z M32.764,142.541c2.294-47.143,41.065-84.072,88.264-84.072
			c47.2,0,85.97,36.929,88.264,84.072l0.036,0.752h-14.605H32.728L32.764,142.541z M31.989,158.473h162.735h15.344l0.875,17.985
			H31.114L31.989,158.473z M226.499,496.043H15.559l14.816-304.405h181.308L226.499,496.043z M265.057,143.294h-40.529l-0.073-1.49
			c-0.49-10.071-2.407-19.741-5.539-28.826l46.14,16.508V143.294z"/>
	</g>
</g>
<g>
</g>
<g>
</g>
<g>
</g>
<g>
</g>
<g>
</g>
<g>
</g>
<g>
</g>
<g>
</g>
<g>
</g>
<g>
</g>
<g>
</g>
<g>
</g>
<g>
</g>
<g>
</g>
<g>
</g>
</svg>
