<?xml version="1.0" encoding="iso-8859-1"?>
<!-- Generator: Adobe Illustrator 19.0.0, SVG Export Plug-In . SVG Version: 6.00 Build 0)  -->
<svg version="1.1" id="Layer_1" xmlns="http://www.w3.org/2000/svg" xmlns:xlink="http://www.w3.org/1999/xlink" x="0px" y="0px"
	 viewBox="0 0 298.89 298.89" style="enable-background:new 0 0 298.89 298.89;" xml:space="preserve">
<g>
	<g>
		<g>
			<path d="M231.064,208.574c26.944,2.346,49.489-18.975,49.489-45.312c0-25.092-20.414-45.506-45.506-45.506H44.608
				c-5.453,0-9.716,4.71-9.181,10.13l4.876,49.402c2.953,29.912,18.685,55.527,41.489,71.734H43.27
				c-13.749,0-24.933,11.186-24.933,24.933c0,13.748,11.184,24.936,24.933,24.936h193.115c13.75,0,24.935-11.186,24.935-24.933
				c0-13.748-11.186-24.933-24.935-24.933h-38.521C212.2,238.833,223.741,224.935,231.064,208.574z M243.282,137.491
				c10.903,3.492,18.823,13.723,18.823,25.771c0,14.19-10.984,25.856-24.894,26.963
				C239.164,181.772,239.009,180.768,243.282,137.491z M236.385,267.473v-0.001c3.576,0,6.485,2.909,6.485,6.483
				s-2.909,6.485-6.485,6.485H43.27c-3.576,0-6.483-2.909-6.483-6.483c0-3.574,2.909-6.483,6.483-6.483H236.385z M139.828,249.022
				c-42.131,0-77.024-31.618-81.163-73.545l-3.876-39.271h170.079l-3.877,39.271C216.899,216.919,182.394,249.022,139.828,249.022z"
				/>
			<path d="M104.96,91.116c5.095,0,9.225-4.129,9.225-9.225V37.189c0-5.096-4.13-9.225-9.225-9.225s-9.225,4.129-9.225,9.225v44.702
				C95.735,86.987,99.865,91.116,104.96,91.116z"/>
			<path d="M139.828,91.116c5.095,0,9.225-4.129,9.225-9.225V9.225c0-5.096-4.13-9.225-9.225-9.225s-9.225,4.129-9.225,9.225v72.666
				C130.603,86.987,134.733,91.116,139.828,91.116z"/>
			<path d="M174.694,91.116c5.096,0,9.225-4.129,9.225-9.225V37.189c0-5.096-4.129-9.225-9.225-9.225s-9.225,4.129-9.225,9.225
				v44.702C165.469,86.987,169.6,91.116,174.694,91.116z"/>
		</g>
	</g>
</g>
<g>
</g>
<g>
</g>
<g>
</g>
<g>
</g>
<g>
</g>
<g>
</g>
<g>
</g>
<g>
</g>
<g>
</g>
<g>
</g>
<g>
</g>
<g>
</g>
<g>
</g>
<g>
</g>
<g>
</g>
</svg>
