<?xml version="1.0" encoding="iso-8859-1"?>
<!-- Generator: Adobe Illustrator 19.0.0, SVG Export Plug-In . SVG Version: 6.00 Build 0)  -->
<svg version="1.1" id="Layer_1" xmlns="http://www.w3.org/2000/svg" xmlns:xlink="http://www.w3.org/1999/xlink" x="0px" y="0px"
	 viewBox="0 0 491.777 491.777" style="enable-background:new 0 0 491.777 491.777;" xml:space="preserve">
<g>
	<g>
		<path d="M371.629,33.049C263.56-29.395,126.057,0.11,53.325,97.401L38.014,21.119l-20.08,4.04l22.15,110.33l111.905-21.79
			l-3.91-20.1l-77.534,15.089C137.367,20.4,262.739-6.217,361.379,50.789c92.96,53.71,133.39,164.81,96.135,264.16l19.18,7.2
			C517.474,213.379,473.289,91.799,371.629,33.049z"/>
	</g>
</g>
<g>
	<g>
		<path d="M451.694,356.289l-111.905,21.79l3.91,20.1l77.539-15.09c-66.813,88.301-192.175,114.935-290.839,57.9
			c-92.96-53.71-133.39-164.81-96.135-264.16l-19.18-7.2c-40.78,108.77,3.405,230.35,105.065,289.1
			c38.5,22.25,80.735,32.82,122.45,32.82c75.401,0,149.001-34.659,195.82-97.334l15.345,76.444l20.08-4.04L451.694,356.289z"/>
	</g>
</g>
<g>
</g>
<g>
</g>
<g>
</g>
<g>
</g>
<g>
</g>
<g>
</g>
<g>
</g>
<g>
</g>
<g>
</g>
<g>
</g>
<g>
</g>
<g>
</g>
<g>
</g>
<g>
</g>
<g>
</g>
</svg>
